<svg xmlns="http://www.w3.org/2000/svg" width="1440" height="900" viewBox="0 0 1440 900" role="img" aria-labelledby="title desc">
  <title id="title">Tibly documents placeholder</title>
  <desc id="desc">A document generator showing a prescription, certificate and receipt ready to send.</desc>
  <rect width="1440" height="900" fill="#f7f8fa"/>
  <rect width="1440" height="82" fill="#0f2557"/>
  <rect x="45" y="24" width="36" height="36" rx="8" fill="#ffffff"/>
  <text x="57" y="50" fill="#0f2557" font-family="Georgia, serif" font-size="23" font-weight="700">T</text>
  <text x="102" y="49" fill="#ffffff" font-family="Arial, sans-serif" font-size="20" font-weight="600">Tibly</text>
  <text x="302" y="50" fill="#b9c9e4" font-family="Arial, sans-serif" font-size="16">Consultation</text>
  <text x="426" y="50" fill="#ffffff" font-family="Arial, sans-serif" font-size="16" font-weight="600">Documents</text>
  <rect x="426" y="78" width="82" height="4" rx="2" fill="#479d71"/>
  <text x="76" y="151" fill="#0f2557" font-family="Georgia, serif" font-size="31" font-weight="700">Documents</text>
  <text x="76" y="184" fill="#5a6372" font-family="Arial, sans-serif" font-size="15">Ready from this consultation</text>
  <rect x="76" y="231" width="382" height="142" rx="12" fill="#ffffff" stroke="#e2e5ea"/>
  <rect x="104" y="262" width="54" height="54" rx="10" fill="#eef2f9"/>
  <path d="M121 275h20v28h-20z M126 283h10 M126 289h10 M126 295h7" fill="none" stroke="#1a366b" stroke-width="2"/>
  <text x="184" y="279" fill="#0f2557" font-family="Georgia, serif" font-size="22" font-weight="700">Prescription</text>
  <text x="184" y="309" fill="#5a6372" font-family="Arial, sans-serif" font-size="13">4 medicines · populated from plan</text>
  <rect x="184" y="327" width="95" height="24" rx="12" fill="#eaf5ef"/>
  <text x="201" y="343" fill="#186040" font-family="Arial, sans-serif" font-size="11">Ready to print</text>
  <rect x="76" y="397" width="382" height="142" rx="12" fill="#ffffff" stroke="#e2e5ea"/>
  <rect x="104" y="428" width="54" height="54" rx="10" fill="#eef2f9"/>
  <path d="M121 441h20v28h-20z M126 449h10 M126 455h10 M126 461h7" fill="none" stroke="#1a366b" stroke-width="2"/>
  <text x="184" y="445" fill="#0f2557" font-family="Georgia, serif" font-size="22" font-weight="700">Medical certificate</text>
  <text x="184" y="475" fill="#5a6372" font-family="Arial, sans-serif" font-size="13">Details filled from the consultation</text>
  <rect x="184" y="493" width="95" height="24" rx="12" fill="#eaf5ef"/>
  <text x="201" y="509" fill="#186040" font-family="Arial, sans-serif" font-size="11">Ready to print</text>
  <rect x="76" y="563" width="382" height="142" rx="12" fill="#ffffff" stroke="#e2e5ea"/>
  <rect x="104" y="594" width="54" height="54" rx="10" fill="#eef2f9"/>
  <path d="M121 607h20v28h-20z M126 615h10 M126 621h10 M126 627h7" fill="none" stroke="#1a366b" stroke-width="2"/>
  <text x="184" y="611" fill="#0f2557" font-family="Georgia, serif" font-size="22" font-weight="700">Receipt</text>
  <text x="184" y="641" fill="#5a6372" font-family="Arial, sans-serif" font-size="13">MUR · patient and practice details</text>
  <rect x="184" y="659" width="95" height="24" rx="12" fill="#eaf5ef"/>
  <text x="201" y="675" fill="#186040" font-family="Arial, sans-serif" font-size="11">Ready to print</text>
  <rect x="536" y="129" width="828" height="676" rx="14" fill="#ffffff" stroke="#e2e5ea"/>
  <text x="598" y="189" fill="#0f2557" font-family="Georgia, serif" font-size="27" font-weight="700">Prescription</text>
  <text x="1200" y="188" fill="#5a6372" font-family="Arial, sans-serif" font-size="13">18 June 2026</text>
  <line x1="598" y1="216" x2="1302" y2="216" stroke="#e2e5ea"/>
  <text x="598" y="259" fill="#434b58" font-family="Arial, sans-serif" font-size="14">D. Ramsamy · 62 · Female</text>
  <text x="598" y="316" fill="#186040" font-family="Arial, sans-serif" font-size="12" font-weight="700" letter-spacing="1.1">MEDICINES</text>
  <text x="598" y="360" fill="#0f2557" font-family="Arial, sans-serif" font-size="15" font-weight="600">Amlodipine 5 mg</text>
  <text x="1198" y="360" fill="#5a6372" font-family="Arial, sans-serif" font-size="14">1 · 0 · 0</text>
  <line x1="598" y1="381" x2="1302" y2="381" stroke="#eff1f4"/>
  <text x="598" y="425" fill="#0f2557" font-family="Arial, sans-serif" font-size="15" font-weight="600">Bisoprolol 5 mg</text>
  <text x="1198" y="425" fill="#5a6372" font-family="Arial, sans-serif" font-size="14">1 · 0 · 0</text>
  <line x1="598" y1="446" x2="1302" y2="446" stroke="#eff1f4"/>
  <text x="598" y="490" fill="#0f2557" font-family="Arial, sans-serif" font-size="15" font-weight="600">Rivaroxaban 20 mg</text>
  <text x="1198" y="490" fill="#5a6372" font-family="Arial, sans-serif" font-size="14">0 · 0 · 1</text>
  <line x1="598" y1="511" x2="1302" y2="511" stroke="#eff1f4"/>
  <text x="598" y="555" fill="#0f2557" font-family="Arial, sans-serif" font-size="15" font-weight="600">Atorvastatin 40 mg</text>
  <text x="1198" y="555" fill="#5a6372" font-family="Arial, sans-serif" font-size="14">0 · 0 · 1</text>
  <rect x="1134" y="714" width="168" height="46" rx="8" fill="#1f7a4d"/>
  <text x="1170" y="743" fill="#ffffff" font-family="Arial, sans-serif" font-size="14" font-weight="600">Print or send</text>
</svg>
